<?xml version="1.0" standalone="no"?>
<!DOCTYPE svg PUBLIC "-//W3C//DTD SVG 20010904//EN"
 "http://www.w3.org/TR/2001/REC-SVG-20010904/DTD/svg10.dtd">
<svg version="1.0" xmlns="http://www.w3.org/2000/svg"
 width="512.000000pt" height="512.000000pt" viewBox="0 0 512.000000 512.000000"
 preserveAspectRatio="xMidYMid meet">
<metadata>
Created by potrace 1.14, written by Peter Selinger 2001-2017
</metadata>
<g transform="translate(0.000000,512.000000) scale(0.100000,-0.100000)"
fill="#000000" stroke="none">
<path d="M0 2560 l0 -2560 2560 0 2560 0 0 2560 0 2560 -2560 0 -2560 0 0
-2560z m3516 2399 c184 -67 337 -233 379 -410 10 -42 15 -116 15 -215 l0 -152
248 -4 c198 -4 258 -8 302 -22 187 -60 328 -203 375 -381 13 -52 15 -209 15
-1215 0 -1273 3 -1210 -62 -1333 -62 -116 -165 -205 -294 -255 l-69 -27 -392
-3 -391 -3 -4 -187 c-5 -216 -17 -268 -94 -384 -77 -115 -218 -206 -354 -228
-41 -6 -419 -10 -1040 -10 -1071 0 -1053 -1 -1178 61 -74 36 -168 120 -212
189 -18 27 -44 82 -58 122 l-27 73 -3 1437 c-2 1425 -3 1437 -22 1443 -35 11
-144 129 -177 191 -60 113 -64 139 -69 482 -5 367 0 414 58 531 80 164 256
299 418 320 36 5 628 8 1315 7 l1250 -1 71 -26z"/>
<path d="M3640 2560 l0 -1080 218 0 c243 0 288 8 361 60 28 20 51 49 67 83
l24 52 0 886 0 885 -26 52 c-17 34 -41 63 -69 82 -73 50 -134 60 -367 60
l-208 0 0 -1080z"/>
</g>
</svg>
